<!DOCTYPE svg PUBLIC "-//W3C//DTD SVG 1.1//EN" "http://www.w3.org/Graphics/SVG/1.1/DTD/svg11.dtd">
<!-- Uploaded to: SVG Repo, www.svgrepo.com, Transformed by: SVG Repo Mixer Tools -->
<svg fill="#965ceb" width="800px" height="800px" viewBox="0 0 24 24" xmlns="http://www.w3.org/2000/svg">
<g id="SVGRepo_bgCarrier" stroke-width="0"/>
<g id="SVGRepo_tracerCarrier" stroke-linecap="round" stroke-linejoin="round"/>
<g id="SVGRepo_iconCarrier">
<path d="M22,7H13V2a1,1,0,0,0-1-1H2A1,1,0,0,0,1,2V22a1,1,0,0,0,1,1H22a1,1,0,0,0,1-1V8A1,1,0,0,0,22,7ZM11,13H3V11h8Zm0-5V9H3V7h8ZM3,15h8v2H3ZM11,3V5H3V3ZM3,19h8v2H3Zm18,2H13V9h8Zm-5-5H14V14h2Zm0,4H14V18h2Zm4-4H18V14h2Zm-4-4H14V10h2Zm4,0H18V10h2Zm0,8H18V18h2Z"/>
</g>
</svg>